<svg width="64" height="64" viewBox="0 0 64 64" fill="none" xmlns="http://www.w3.org/2000/svg">
  <rect width="64" height="64" rx="12" fill="#4A90E2"/>
  <path d="M32 16C23.2 16 16 23.2 16 32C16 40.8 23.2 48 32 48C40.8 48 48 40.8 48 32C48 23.2 40.8 16 32 16ZM32 44C25.4 44 20 38.6 20 32C20 25.4 25.4 20 32 20C38.6 20 44 25.4 44 32C44 38.6 38.6 44 32 44Z" fill="white"/>
  <path d="M32 24C33.1 24 34 23.1 34 22C34 20.9 33.1 20 32 20C30.9 20 30 20.9 30 22C30 23.1 30.9 24 32 24Z" fill="white"/>
  <path d="M32 28C30.9 28 30 28.9 30 30V40C30 41.1 30.9 42 32 42C33.1 42 34 41.1 34 40V30C34 28.9 33.1 28 32 28Z" fill="white"/>
</svg>